<mxfile host="Electron" modified="2024-06-17T15:19:33.677Z" agent="Mozilla/5.0 (Windows NT 10.0; Win64; x64) AppleWebKit/537.36 (KHTML, like Gecko) draw.io/24.5.3 Chrome/124.0.6367.207 Electron/30.0.6 Safari/537.36" etag="VbNI285ltffPP5ueTxZu" version="24.5.3" type="device">
  <diagram name="Page-1" id="edf60f1a-56cd-e834-aa8a-f176f3a09ee4">
    <mxGraphModel dx="965" dy="667" grid="1" gridSize="10" guides="1" tooltips="1" connect="1" arrows="1" fold="1" page="1" pageScale="1" pageWidth="1700" pageHeight="1100" background="none" math="0" shadow="0">
      <root>
        <mxCell id="0" />
        <mxCell id="1" parent="0" />
        <mxCell id="9qcZAn6LqJpJXCEg-Hw9-12" value="" style="edgeStyle=orthogonalEdgeStyle;rounded=0;orthogonalLoop=1;jettySize=auto;html=1;" edge="1" parent="1" source="9qcZAn6LqJpJXCEg-Hw9-1" target="9qcZAn6LqJpJXCEg-Hw9-10">
          <mxGeometry relative="1" as="geometry" />
        </mxCell>
        <mxCell id="9qcZAn6LqJpJXCEg-Hw9-1" value="开始" style="strokeWidth=2;html=1;shape=mxgraph.flowchart.terminator;whiteSpace=wrap;fontSize=14;" vertex="1" parent="1">
          <mxGeometry x="370" y="150" width="100" height="60" as="geometry" />
        </mxCell>
        <mxCell id="9qcZAn6LqJpJXCEg-Hw9-9" value="" style="edgeStyle=orthogonalEdgeStyle;rounded=0;orthogonalLoop=1;jettySize=auto;html=1;" edge="1" parent="1" source="9qcZAn6LqJpJXCEg-Hw9-2" target="9qcZAn6LqJpJXCEg-Hw9-8">
          <mxGeometry relative="1" as="geometry" />
        </mxCell>
        <mxCell id="9qcZAn6LqJpJXCEg-Hw9-2" value="input num" style="shape=parallelogram;perimeter=parallelogramPerimeter;whiteSpace=wrap;html=1;fixedSize=1;strokeWidth=2;fontSize=14;" vertex="1" parent="1">
          <mxGeometry x="360" y="330" width="120" height="60" as="geometry" />
        </mxCell>
        <mxCell id="9qcZAn6LqJpJXCEg-Hw9-15" value="" style="edgeStyle=orthogonalEdgeStyle;rounded=0;orthogonalLoop=1;jettySize=auto;html=1;" edge="1" parent="1" source="9qcZAn6LqJpJXCEg-Hw9-8" target="9qcZAn6LqJpJXCEg-Hw9-14">
          <mxGeometry relative="1" as="geometry" />
        </mxCell>
        <mxCell id="9qcZAn6LqJpJXCEg-Hw9-17" value="" style="edgeStyle=orthogonalEdgeStyle;rounded=0;orthogonalLoop=1;jettySize=auto;html=1;" edge="1" parent="1" source="9qcZAn6LqJpJXCEg-Hw9-8" target="9qcZAn6LqJpJXCEg-Hw9-16">
          <mxGeometry relative="1" as="geometry" />
        </mxCell>
        <mxCell id="9qcZAn6LqJpJXCEg-Hw9-8" value="num % i == 0&amp;nbsp;" style="rhombus;whiteSpace=wrap;html=1;fontSize=14;strokeWidth=2;" vertex="1" parent="1">
          <mxGeometry x="360" y="430" width="120" height="80" as="geometry" />
        </mxCell>
        <mxCell id="9qcZAn6LqJpJXCEg-Hw9-13" value="" style="edgeStyle=orthogonalEdgeStyle;rounded=0;orthogonalLoop=1;jettySize=auto;html=1;" edge="1" parent="1" source="9qcZAn6LqJpJXCEg-Hw9-10" target="9qcZAn6LqJpJXCEg-Hw9-2">
          <mxGeometry relative="1" as="geometry" />
        </mxCell>
        <mxCell id="9qcZAn6LqJpJXCEg-Hw9-10" value="i = 2" style="whiteSpace=wrap;html=1;fontSize=14;strokeWidth=2;" vertex="1" parent="1">
          <mxGeometry x="370" y="250" width="100" height="40" as="geometry" />
        </mxCell>
        <mxCell id="9qcZAn6LqJpJXCEg-Hw9-21" style="edgeStyle=orthogonalEdgeStyle;rounded=0;orthogonalLoop=1;jettySize=auto;html=1;exitX=1;exitY=0.5;exitDx=0;exitDy=0;" edge="1" parent="1" source="9qcZAn6LqJpJXCEg-Hw9-22">
          <mxGeometry relative="1" as="geometry">
            <mxPoint x="420" y="410" as="targetPoint" />
            <Array as="points">
              <mxPoint x="640" y="690" />
              <mxPoint x="640" y="410" />
            </Array>
          </mxGeometry>
        </mxCell>
        <mxCell id="9qcZAn6LqJpJXCEg-Hw9-23" value="" style="edgeStyle=orthogonalEdgeStyle;rounded=0;orthogonalLoop=1;jettySize=auto;html=1;" edge="1" parent="1" source="9qcZAn6LqJpJXCEg-Hw9-14" target="9qcZAn6LqJpJXCEg-Hw9-22">
          <mxGeometry relative="1" as="geometry" />
        </mxCell>
        <mxCell id="9qcZAn6LqJpJXCEg-Hw9-14" value="i = i + 1" style="whiteSpace=wrap;html=1;fontSize=14;strokeWidth=2;" vertex="1" parent="1">
          <mxGeometry x="360" y="560" width="120" height="60" as="geometry" />
        </mxCell>
        <mxCell id="9qcZAn6LqJpJXCEg-Hw9-16" value="print num不是素数" style="shape=parallelogram;perimeter=parallelogramPerimeter;whiteSpace=wrap;html=1;fixedSize=1;fontSize=14;strokeWidth=2;" vertex="1" parent="1">
          <mxGeometry x="180" y="560" width="140" height="60" as="geometry" />
        </mxCell>
        <mxCell id="9qcZAn6LqJpJXCEg-Hw9-18" value="Y" style="text;html=1;align=center;verticalAlign=middle;resizable=0;points=[];autosize=1;strokeColor=none;fillColor=none;" vertex="1" parent="1">
          <mxGeometry x="330" y="440" width="30" height="30" as="geometry" />
        </mxCell>
        <mxCell id="9qcZAn6LqJpJXCEg-Hw9-19" value="N" style="text;html=1;align=center;verticalAlign=middle;resizable=0;points=[];autosize=1;strokeColor=none;fillColor=none;" vertex="1" parent="1">
          <mxGeometry x="390" y="730" width="30" height="30" as="geometry" />
        </mxCell>
        <mxCell id="9qcZAn6LqJpJXCEg-Hw9-25" value="" style="edgeStyle=orthogonalEdgeStyle;rounded=0;orthogonalLoop=1;jettySize=auto;html=1;" edge="1" parent="1" source="9qcZAn6LqJpJXCEg-Hw9-22" target="9qcZAn6LqJpJXCEg-Hw9-24">
          <mxGeometry relative="1" as="geometry" />
        </mxCell>
        <mxCell id="9qcZAn6LqJpJXCEg-Hw9-22" value="i &amp;lt; num&amp;nbsp;" style="rhombus;whiteSpace=wrap;html=1;fontSize=14;strokeWidth=2;" vertex="1" parent="1">
          <mxGeometry x="360" y="650" width="120" height="80" as="geometry" />
        </mxCell>
        <mxCell id="9qcZAn6LqJpJXCEg-Hw9-24" value="print num不是素数" style="shape=parallelogram;perimeter=parallelogramPerimeter;whiteSpace=wrap;html=1;fixedSize=1;fontSize=14;strokeWidth=2;" vertex="1" parent="1">
          <mxGeometry x="350" y="770" width="140" height="60" as="geometry" />
        </mxCell>
        <mxCell id="9qcZAn6LqJpJXCEg-Hw9-26" value="Y" style="text;html=1;align=center;verticalAlign=middle;resizable=0;points=[];autosize=1;strokeColor=none;fillColor=none;" vertex="1" parent="1">
          <mxGeometry x="480" y="660" width="30" height="30" as="geometry" />
        </mxCell>
      </root>
    </mxGraphModel>
  </diagram>
</mxfile>
